<svg width="155" height="105" viewBox="0 0 155 105" fill="none" xmlns="http://www.w3.org/2000/svg">
<path d="M154.548 99.3916C154.768 99.8981 154.536 100.487 154.03 100.707L145.776 104.295C145.269 104.515 144.68 104.283 144.46 103.777C144.24 103.27 144.472 102.681 144.979 102.461L152.315 99.2718L149.126 91.935C148.906 91.4285 149.138 90.8394 149.645 90.6192C150.151 90.399 150.74 90.6312 150.96 91.1377L154.548 99.3916ZM2.48658 0.336705C7.52849 30.7982 25.4316 47.9079 44.099 53.3373C62.8208 58.7826 82.261 52.5134 90.7653 36.2414L92.5378 37.1678C83.4947 54.4708 62.9581 60.9054 43.5405 55.2578C24.0685 49.5943 5.66942 31.8141 0.513423 0.663293L2.48658 0.336705ZM79.5746 28.2129C77.5988 31.851 76.5966 36.1929 77.3265 41.1197C78.0575 46.0542 80.5364 51.6414 85.6332 57.736C95.8463 69.9485 116.466 84.0715 153.998 98.8598L153.265 100.721C115.623 85.889 94.6321 71.6142 84.099 59.0191C78.8227 52.7099 76.1448 46.7908 75.3481 41.4128C74.5502 36.0269 75.6494 31.2497 77.817 27.2584L79.5746 28.2129ZM90.7653 36.2414C93.2991 31.3931 91.5987 27.088 88.8074 25.1527C87.404 24.1797 85.7366 23.8057 84.1376 24.2031C82.549 24.598 80.8905 25.7898 79.5746 28.2129L77.817 27.2584C79.3453 24.4443 81.4185 22.8182 83.6551 22.2622C85.8812 21.7088 88.1323 22.251 89.9469 23.5091C93.5915 26.0359 95.5248 31.4524 92.5378 37.1678L90.7653 36.2414Z" fill="#080708"/>
</svg>
