<svg width="16" height="12" viewBox="0 0 16 12" fill="none" xmlns="http://www.w3.org/2000/svg">
<g clip-path="url(#clip0_251_4248)">
<path d="M10.3671 6.66406L9.02712 8.00863C8.48371 8.55394 7.52759 8.56569 6.97243 8.00863L5.63234 6.66406L0.819336 11.4927C0.998492 11.5755 1.19602 11.625 1.40602 11.625H14.5935C14.8035 11.625 15.001 11.5756 15.1801 11.4927L10.3671 6.66406Z" fill="#080708"/>
<path d="M14.5935 0.375H1.40596C1.19596 0.375 0.99843 0.424438 0.819336 0.507281L5.96237 5.66738C5.96271 5.66772 5.96312 5.66778 5.96346 5.66813C5.9638 5.66847 5.96387 5.66894 5.96387 5.66894L7.63615 7.34675C7.81377 7.52438 8.18571 7.52438 8.36334 7.34675L10.0353 5.66922C10.0353 5.66922 10.0357 5.66847 10.036 5.66813C10.036 5.66813 10.0368 5.66772 10.0371 5.66738L15.18 0.50725C15.0009 0.424375 14.8035 0.375 14.5935 0.375Z" fill="#080708"/>
<path d="M0.149562 1.16284C0.056875 1.35028 0 1.55834 0 1.78122V10.2187C0 10.4416 0.0568125 10.6497 0.149531 10.8371L4.97087 6.00012L0.149562 1.16284Z" fill="#080708"/>
<path d="M15.8506 1.16284L11.0293 6.00019L15.8506 10.8372C15.9433 10.6498 16.0001 10.4417 16.0001 10.2188V1.78128C16.0001 1.55834 15.9433 1.35028 15.8506 1.16284Z" fill="#080708"/>
</g>
<defs>
<clipPath id="clip0_251_4248">
<rect width="16" height="12" fill="white"/>
</clipPath>
</defs>
</svg>
