<svg width="49" height="48" viewBox="0 0 49 48" fill="none" xmlns="http://www.w3.org/2000/svg">
<g clip-path="url(#clip0_251_5321)">
<path d="M30.1 28H29.22C28.889 28.0006 28.5929 27.7941 28.4792 27.4832C28.3816 27.2272 28.2768 26.9768 28.164 26.7288C28.0238 26.4272 28.0878 26.0701 28.324 25.836L28.9512 25.208C29.8823 24.2687 29.8806 22.7539 28.9472 21.8168L26.6864 19.556C25.7481 18.6232 24.2327 18.6232 23.2944 19.556L22.6672 20.1824C22.4326 20.4177 22.0761 20.4816 21.7744 20.3424C21.5264 20.2296 21.276 20.1248 21.0192 20.0224C20.7067 19.9095 20.4988 19.6123 20.5 19.28V18.4C20.5 17.0745 19.4255 16 18.1 16H14.9C13.5745 16 12.5 17.0745 12.5 18.4V19.28C12.5006 19.611 12.2941 19.9071 11.9832 20.0208C11.7272 20.1184 11.4768 20.2232 11.2288 20.336C10.9271 20.4755 10.5705 20.4116 10.336 20.176L9.708 19.5488C8.7698 18.6166 7.255 18.6166 6.3168 19.5488L4.056 21.8168C3.1232 22.7551 3.1232 24.2705 4.056 25.2088L4.6824 25.836C4.9186 26.0701 4.9826 26.4272 4.8424 26.7288C4.7296 26.9768 4.6248 27.2272 4.5264 27.484C4.4119 27.7967 4.113 28.0034 3.78 28H2.9C1.5745 28 0.5 29.0745 0.5 30.4V33.6C0.5 34.9255 1.5745 36 2.9 36H3.78C4.111 35.9994 4.4071 36.2059 4.5208 36.5168C4.6184 36.7728 4.7232 37.0232 4.836 37.2712C4.9762 37.5728 4.9122 37.9299 4.676 38.164L4.0488 38.792C3.1166 39.7302 3.1166 41.245 4.0488 42.1832L6.3096 44.444C7.2479 45.3768 8.7633 45.3768 9.7016 44.444L10.3288 43.8176C10.5634 43.5823 10.9199 43.5184 11.2216 43.6576C11.4696 43.7704 11.72 43.8752 11.9768 43.9776C12.2909 44.0892 12.5006 44.3867 12.5 44.72V45.6C12.5 46.9255 13.5745 48 14.9 48H18.1C19.4255 48 20.5 46.9255 20.5 45.6V44.72C20.4994 44.389 20.7059 44.0929 21.0168 43.9792C21.2728 43.8816 21.5232 43.7768 21.7712 43.664C22.0729 43.5245 22.4295 43.5884 22.664 43.824L23.292 44.4512C24.2315 45.3819 25.7459 45.3801 26.6832 44.4472L28.944 42.1864C29.8768 41.2481 29.8768 39.7327 28.944 38.7944L28.3176 38.1672C28.0814 37.9331 28.0174 37.576 28.1576 37.2744C28.2704 37.0264 28.3752 36.776 28.4776 36.5192C28.5905 36.2067 28.8877 35.9988 29.22 36H30.1C31.4255 36 32.5 34.9255 32.5 33.6V30.4C32.5 29.0745 31.4255 28 30.1 28ZM30.9 33.6C30.9 34.0418 30.5418 34.4 30.1 34.4H29.22C28.2255 34.4037 27.3355 35.0184 26.98 35.9472C26.8952 36.1712 26.8035 36.3917 26.7048 36.6088C26.2935 37.5168 26.4843 38.5844 27.1848 39.2936L27.8104 39.92C28.123 40.2322 28.1233 40.7388 27.811 41.0514C27.8108 41.0516 27.8106 41.0518 27.8104 41.052L25.5496 43.3128C25.2372 43.6251 24.7308 43.6251 24.4184 43.3128L23.7912 42.6864C23.0823 41.9853 22.0143 41.7944 21.1064 42.2064C20.8896 42.3048 20.6688 42.3968 20.4464 42.4816C19.5183 42.837 18.904 43.7262 18.9 44.72V45.6C18.9 46.0418 18.5418 46.4 18.1 46.4H14.9C14.4582 46.4 14.1 46.0418 14.1 45.6V44.72C14.0963 43.7255 13.4816 42.8355 12.5528 42.48C12.3288 42.3952 12.1083 42.3035 11.8912 42.2048C10.9832 41.7937 9.9157 41.9846 9.2064 42.6848L8.58 43.3104C8.2678 43.623 7.7612 43.6233 7.4486 43.311C7.4484 43.3108 7.4482 43.3106 7.448 43.3104L5.1872 41.052C4.8749 40.7396 4.8749 40.2332 5.1872 39.9208L5.8136 39.2936C6.5141 38.5844 6.7049 37.5168 6.2936 36.6088C6.1952 36.392 6.1032 36.1712 6.0184 35.9488C5.6638 35.0197 4.7744 34.4044 3.78 34.4H2.9C2.4582 34.4 2.1 34.0418 2.1 33.6V30.4C2.1 29.9582 2.4582 29.6 2.9 29.6H3.78C4.7745 29.5963 5.6645 28.9816 6.02 28.0528C6.1048 27.8288 6.1965 27.6083 6.2952 27.3912C6.7065 26.4832 6.5156 25.4156 5.8152 24.7064L5.1864 24.08C4.8738 23.7678 4.8735 23.2612 5.1858 22.9486C5.186 22.9484 5.1862 22.9482 5.1864 22.948L7.4472 20.6872C7.7596 20.3749 8.266 20.3749 8.5784 20.6872L9.2056 21.3136C9.9145 22.0147 10.9825 22.2056 11.8904 21.7936C12.1072 21.6952 12.328 21.6032 12.5504 21.5184C13.4798 21.1641 14.0955 20.2746 14.1 19.28V18.4C14.1 17.9582 14.4582 17.6 14.9 17.6H18.1C18.5418 17.6 18.9 17.9582 18.9 18.4V19.28C18.9037 20.2745 19.5184 21.1645 20.4472 21.52C20.6712 21.6048 20.8917 21.6965 21.1088 21.7952C22.0167 22.2072 23.0847 22.0163 23.7936 21.3152L24.42 20.6896C24.7336 20.3794 25.2384 20.3794 25.552 20.6896L27.8128 22.9504C28.1251 23.2628 28.1251 23.7692 27.8128 24.0816L27.1864 24.7088C26.486 25.418 26.2951 26.4856 26.7064 27.3936C26.8048 27.6104 26.8968 27.8312 26.9816 28.0536C27.337 28.9817 28.2262 29.596 29.22 29.6H30.1C30.5418 29.6 30.9 29.9582 30.9 30.4V33.6Z" fill="black"/>
<path d="M23.684 31.68C23.676 31.488 23.6624 31.2968 23.6392 31.1064C23.6136 30.9016 23.5832 30.6985 23.5408 30.4992C23.5128 30.3689 23.476 30.24 23.4408 30.1105C23.396 29.9457 23.3456 29.7832 23.2896 29.6232C23.2504 29.512 23.2096 29.4017 23.168 29.2921C23.065 29.0359 22.9472 28.7858 22.8152 28.5433C22.8048 28.5249 22.7984 28.5049 22.788 28.4865C22.5799 28.1161 22.3389 27.765 22.068 27.4377C22.0448 27.4089 22.0184 27.3817 21.9944 27.3537C21.884 27.2233 21.7704 27.0969 21.6512 26.9761C21.5888 26.9113 21.5232 26.8505 21.4576 26.7881C21.3776 26.7137 21.2976 26.6401 21.2176 26.5697C21.1205 26.4854 21.0216 26.4037 20.9208 26.3248L20.7896 26.2272C19.5517 25.3001 18.0466 24.7992 16.5 24.8C16.42 24.8 16.34 24.812 16.26 24.8152C16.0896 24.82 15.9184 24.8296 15.7464 24.8472C15.656 24.8568 15.5648 24.8673 15.4744 24.8801C15.2136 24.9144 14.9548 24.9627 14.6992 25.0248C10.8471 26.0202 8.53135 29.95 9.52675 33.8021C10.1827 36.3405 12.1659 38.3222 14.7048 38.9761C14.7176 38.9761 14.7312 38.98 14.7448 38.9832C15.0211 39.0521 15.301 39.1056 15.5832 39.1433C15.7696 39.1665 15.956 39.1712 16.1432 39.18C16.268 39.1864 16.3832 39.2049 16.5136 39.2049C16.7416 39.2049 16.9784 39.1897 17.22 39.1657C17.2456 39.1657 17.2712 39.1585 17.3 39.1552C17.4944 39.1336 17.6912 39.1049 17.892 39.0649C17.972 39.0497 18.0464 39.0296 18.1232 39.012C18.264 38.9792 18.404 38.9448 18.548 38.9024C18.66 38.8688 18.7688 38.8296 18.8784 38.7912C18.988 38.7528 19.1016 38.7112 19.2152 38.668C19.3288 38.6248 19.424 38.5752 19.5272 38.5273C19.6616 38.4656 19.7952 38.4049 19.9272 38.3328H19.932C20.6786 37.9332 21.3682 37.4351 21.9824 36.852C22.1483 36.6972 22.2926 36.5206 22.4112 36.3272C23.0356 35.3262 23.4458 34.2067 23.616 33.0392C23.6384 32.8848 23.6584 32.7304 23.6704 32.5728C23.6816 32.428 23.6896 32.284 23.6928 32.14C23.6928 32.0944 23.6992 32.0512 23.6992 32.0056C23.7 31.8928 23.6888 31.7888 23.684 31.68ZM22.0896 32.2041C22.0896 32.2705 22.084 32.3368 22.08 32.4024C22.0656 32.596 22.0408 32.7896 22.008 32.984C21.709 34.6473 20.6763 36.0873 19.1968 36.904C19.0976 36.956 19 37.0048 18.9024 37.0496L18.836 37.0816C18.3712 37.2927 17.8806 37.4411 17.3768 37.5232C17.3416 37.5288 17.3056 37.5352 17.2696 37.54C17.1696 37.5544 17.0712 37.5665 16.9736 37.5753C16.8448 37.5865 16.7152 37.5928 16.5832 37.5952C16.5272 37.5952 16.472 37.5952 16.416 37.5952C16.2267 37.593 16.0377 37.5813 15.8496 37.56L15.7536 37.5488C15.5336 37.52 15.3154 37.479 15.1 37.4256C12.1038 36.6588 10.2966 33.6081 11.0634 30.6119C11.5701 28.6321 13.1151 27.0856 15.0944 26.5769V26.5761C15.554 26.4602 16.026 26.4009 16.5 26.4C16.7287 26.4013 16.9572 26.4168 17.184 26.4464C17.2448 26.4536 17.3048 26.4648 17.3648 26.4736C17.5376 26.5008 17.7088 26.5352 17.8776 26.5784C17.9328 26.5928 17.988 26.6057 18.0424 26.6209C18.4678 26.7437 18.8773 26.916 19.2624 27.1344C19.324 27.1704 19.384 27.208 19.4448 27.2456C19.5712 27.3256 19.6936 27.4056 19.8144 27.4968C19.8792 27.544 19.9448 27.5904 20.0072 27.6408C20.1642 27.7662 20.3145 27.8997 20.4576 28.0408C20.5144 28.0984 20.5664 28.1617 20.6216 28.2217C20.7136 28.3217 20.8032 28.4241 20.8888 28.5321C20.948 28.6065 21.0048 28.6832 21.0608 28.7608C21.1408 28.876 21.2208 28.996 21.2928 29.1176C21.3328 29.184 21.3728 29.2488 21.4136 29.3168C21.5168 29.5067 21.6087 29.7026 21.6888 29.9033C21.7208 29.9833 21.748 30.0633 21.7768 30.1433C21.8288 30.2905 21.8736 30.4392 21.9128 30.5896C21.9328 30.6696 21.9552 30.7408 21.972 30.8184C22.0187 31.0346 22.0526 31.2534 22.0736 31.4736C22.0784 31.532 22.0784 31.5912 22.0824 31.6496C22.0936 31.8336 22.0968 32.0184 22.0896 32.2041Z" fill="black"/>
<path d="M46.1004 16.8H43.5844C43.2489 16.8034 42.9488 16.5921 42.8388 16.2752C42.5907 15.5321 42.2905 14.8073 41.9404 14.1064C41.7918 13.8037 41.8537 13.4398 42.094 13.2032L43.878 11.4168C44.8144 10.4797 44.8144 8.9611 43.878 8.024L40.4764 4.628C39.5393 3.6916 38.0207 3.6916 37.0836 4.628L35.3004 6.4104C35.0641 6.6506 34.7007 6.7128 34.398 6.5648C33.697 6.2129 32.972 5.9111 32.2284 5.6616C31.9102 5.5527 31.6974 5.2523 31.7004 4.916V2.4C31.7004 1.0745 30.6259 0 29.3004 0H24.5004C23.1749 0 22.1004 1.0745 22.1004 2.4V4.916C22.1038 5.2515 21.8926 5.5516 21.5756 5.6616C20.8324 5.911 20.1076 6.2126 19.4068 6.564C19.1041 6.7131 18.74 6.6512 18.5036 6.4104L16.7172 4.6264C15.779 3.6927 14.2626 3.6927 13.3244 4.6264L9.92924 8.0216C8.99234 8.9588 8.99234 10.478 9.92924 11.4152L12.5524 14.0432C12.8697 14.3506 13.3762 14.3426 13.6836 14.0252C13.9835 13.7156 13.9842 13.224 13.6852 12.9136L11.0604 10.2864C10.7481 9.974 10.7481 9.4676 11.0604 9.1552L14.4556 5.76C14.768 5.4477 15.2744 5.4477 15.5868 5.76L17.374 7.544C18.0971 8.2714 19.2051 8.4532 20.1228 7.9952C20.7565 7.6779 21.4117 7.4055 22.0836 7.18C23.0534 6.8517 23.7046 5.9399 23.7004 4.916V2.4C23.7004 1.9582 24.0586 1.6 24.5004 1.6H29.3004C29.7422 1.6 30.1004 1.9582 30.1004 2.4V4.916C30.0963 5.9397 30.7475 6.8512 31.7172 7.1792C32.3894 7.4048 33.0449 7.6774 33.6788 7.9952C34.5967 8.4508 35.7032 8.2688 36.4268 7.5432L38.214 5.76C38.5264 5.4477 39.0328 5.4477 39.3452 5.76L42.7404 9.156C43.0522 9.4683 43.0522 9.9741 42.7404 10.2864L40.9564 12.0736C40.2297 12.7971 40.048 13.9046 40.5052 14.8224C40.8225 15.4561 41.0949 16.1113 41.3204 16.7832C41.6485 17.7532 42.5604 18.4044 43.5844 18.4H46.1004C46.5422 18.4 46.9004 18.7582 46.9004 19.2V24C46.9004 24.4418 46.5422 24.8 46.1004 24.8H43.5844C42.5607 24.7959 41.6492 25.4471 41.3212 26.4168C41.0957 27.089 40.823 27.7445 40.5052 28.3784C40.0488 29.2962 40.2309 30.4031 40.9572 31.1264L42.7412 32.9136C43.0535 33.226 43.0535 33.7324 42.7412 34.0448L39.3444 37.44C39.0321 37.7518 38.5263 37.7518 38.214 37.44L35.5852 34.8168C35.2778 34.4994 34.7713 34.4914 34.454 34.7988C34.1366 35.1062 34.1286 35.6127 34.436 35.93C34.4424 35.9366 34.449 35.9432 34.4556 35.9496L37.0836 38.5728C38.0207 39.5092 39.5393 39.5092 40.4764 38.5728L43.8716 35.1784C44.8085 34.2412 44.8085 32.722 43.8716 31.7848L42.09 30C41.85 29.7636 41.7879 29.4003 41.9356 29.0976C42.2875 28.3966 42.5893 27.6716 42.8388 26.928C42.9477 26.6098 43.2481 26.397 43.5844 26.4H46.1004C47.4259 26.4 48.5004 25.3255 48.5004 24V19.2C48.5004 17.8745 47.4259 16.8 46.1004 16.8Z" fill="black"/>
<path d="M34.254 14.2464C30.1902 10.1911 23.6106 10.1911 19.5468 14.2464C19.2399 14.5642 19.2487 15.0707 19.5665 15.3776C19.8765 15.677 20.368 15.677 20.678 15.3776C24.0915 11.918 29.6632 11.8807 33.1228 15.2942C36.5824 18.7077 36.6197 24.2794 33.2062 27.739C33.1786 27.767 33.1508 27.7948 33.1228 27.8224C32.805 28.1294 32.7962 28.6358 33.1032 28.9536C33.4102 29.2714 33.9166 29.2802 34.2344 28.9732C34.241 28.9668 34.2476 28.9602 34.254 28.9536C38.3093 24.8898 38.3093 18.3102 34.254 14.2464Z" fill="black"/>
</g>
<defs>
<clipPath id="clip0_251_5321">
<rect width="48" height="48" fill="white" transform="translate(0.5)"/>
</clipPath>
</defs>
</svg>
